<svg width="718" height="1426" xmlns="http://www.w3.org/2000/svg">

 <g>
  <title>Layer 1</title>
  <ellipse opacity="0.34" stroke="#000" ry="50" rx="50.5" id="svg_21" cy="244" cx="61.5" stroke-dasharray="2,2" stroke-width="0" fill="#84D3DB"/>
  <ellipse stroke="#000" opacity="0.34" ry="76.5" rx="73.00001" id="svg_23" cy="415.5" cx="694" stroke-dasharray="2,2" stroke-width="0" fill="#FFAFCC"/>
  <ellipse stroke="#000" opacity="0.34" ry="31.18812" rx="31.5" id="svg_24" cy="458.81188" cx="488.5" stroke-dasharray="2,2" stroke-width="0" fill="#A8FFE9"/>
  <ellipse opacity="0.34" stroke="#000" ry="50" rx="50.5" id="svg_25" cy="334" cx="457.5" stroke-dasharray="2,2" stroke-width="0" fill="#FFFA8D"/>
  <ellipse stroke="#000" opacity="0.34" ry="30" rx="30" id="svg_26" cy="265" cx="642" stroke-dasharray="2,2" stroke-width="0" fill="#84D3DB"/>
  <ellipse stroke="#000" opacity="0.34" ry="115.27397" rx="110.00001" id="svg_27" cy="230.27397" cx="490" stroke-dasharray="2,2" stroke-width="0" fill="#8CD79F"/>
  <ellipse stroke="#000" opacity="0.34" ry="24.25743" rx="24.5" id="svg_28" cy="182.25743" cx="246.5" stroke-dasharray="2,2" stroke-width="0" fill="#B9FFCE"/>
  <ellipse stroke="#000" opacity="0.34" ry="103.74657" rx="99" id="svg_29" cy="332.25343" cx="284" stroke-dasharray="2,2" stroke-width="0" fill="#D3BEE7"/>
  <ellipse stroke="#000" opacity="0.34" ry="43.48972" rx="41.5" id="svg_30" cy="175.51027" cx="737.5" stroke-dasharray="2,2" stroke-width="0" fill="#FFB27C"/>
  <ellipse stroke="#000" opacity="0.34" ry="47.6815" rx="45.5" id="svg_31" cy="453.31849" cx="306.5" stroke-dasharray="2,2" stroke-width="0" fill="#FFAFCC"/>
  <ellipse stroke="#000" opacity="0.34" ry="48.20548" rx="46" id="svg_32" cy="383.79452" cx="117" stroke-dasharray="2,2" stroke-width="0" fill="#FFFF91"/>
  <ellipse stroke="#000" opacity="0.34" ry="115.27397" rx="110.00001" id="svg_34" cy="634.27397" cx="530" stroke-dasharray="2,2" stroke-width="0" fill="#8CD79F"/>
  <ellipse stroke="#000" opacity="0.34" ry="76.5" rx="73.00001" id="svg_35" cy="658.5" cx="135" stroke-dasharray="2,2" stroke-width="0" fill="#FFAFCC"/>
  <ellipse stroke="#000" opacity="0.34" ry="31.18812" rx="31.5" id="svg_36" cy="524.81188" cx="186.5" stroke-dasharray="2,2" stroke-width="0" fill="#A8FFE9"/>
  <ellipse stroke="#000" opacity="0.34" ry="48.20548" rx="46" id="svg_37" cy="583.79452" cx="298" stroke-dasharray="2,2" stroke-width="0" fill="#FFFF91"/>
  <ellipse stroke="#000" opacity="0.34" ry="24.25743" rx="24.5" id="svg_38" cy="495.25743" cx="401.5" stroke-dasharray="2,2" stroke-width="0" fill="#B9FFCE"/>
  <ellipse opacity="0.34" stroke="#000" ry="50" rx="50.5" id="svg_39" cy="811" cx="393.5" stroke-dasharray="2,2" stroke-width="0" fill="#84D3DB"/>
  <ellipse opacity="0.34" stroke="#000" ry="50" rx="50.5" id="svg_40" cy="534" cx="80.5" stroke-dasharray="2,2" stroke-width="0" fill="#FFFA8D"/>
  <ellipse stroke="#000" opacity="0.34" ry="30" rx="30" id="svg_41" cy="413" cx="559" stroke-dasharray="2,2" stroke-width="0" fill="#84D3DB"/>
  <ellipse stroke="#000" opacity="0.34" ry="43.48972" rx="41.5" id="svg_42" cy="107.51027" cx="327.5" stroke-dasharray="2,2" stroke-width="0" fill="#FFB27C"/>
  <ellipse stroke="#000" opacity="0.34" ry="43.48972" rx="41.5" id="svg_43" cy="827.51027" cx="517.5" stroke-dasharray="2,2" stroke-width="0" fill="#FFB27C"/>
  <ellipse opacity="0.34" stroke="#000" ry="50" rx="50.5" id="svg_44" cy="833" cx="53.5" stroke-dasharray="2,2" stroke-width="0" fill="#84D3DB"/>
  <ellipse stroke="#000" opacity="0.34" ry="125.74258" rx="127.00001" id="svg_45" cy="936.25742" cx="202" stroke-dasharray="2,2" stroke-width="0" fill="#FFFA8D"/>
  <ellipse stroke="#000" opacity="0.34" ry="30" rx="30" id="svg_46" cy="854" cx="634" stroke-dasharray="2,2" stroke-width="0" fill="#84D3DB"/>
  <ellipse stroke="#000" opacity="0.34" ry="28.29452" rx="27" id="svg_47" cy="1031.25339" cx="665" stroke-dasharray="2,2" stroke-width="0" fill="#8CD79F"/>
  <ellipse stroke="#000" opacity="0.34" ry="24.25743" rx="24.5" id="svg_48" cy="771.25743" cx="238.5" stroke-dasharray="2,2" stroke-width="0" fill="#B9FFCE"/>
  <ellipse stroke="#000" opacity="0.34" ry="39.82192" rx="38" id="svg_49" cy="1078.17808" cx="213" stroke-dasharray="2,2" stroke-width="0" fill="#D3BEE7"/>
  <ellipse stroke="#000" opacity="0.34" ry="43.48972" rx="41.5" id="svg_50" cy="764.51027" cx="729.5" stroke-dasharray="2,2" stroke-width="0" fill="#FFB27C"/>
  <ellipse stroke="#000" opacity="0.34" ry="41.91781" rx="40" id="svg_51" cy="988.63023" cx="316" stroke-dasharray="2,2" stroke-width="0" fill="#8CD79F"/>
  <ellipse stroke="#000" opacity="0.34" ry="43.48972" rx="41.5" id="svg_52" cy="696.51027" cx="319.5" stroke-dasharray="2,2" stroke-width="0" fill="#FFB27C"/>
  <ellipse stroke="#000" opacity="0.34" ry="88.55137" rx="84.50001" id="svg_53" cy="981.44863" cx="491.5" stroke-dasharray="2,2" stroke-width="0" fill="#FFAFCC"/>
  <ellipse stroke="#000" opacity="0.34" ry="31.96233" rx="30.5" id="svg_54" cy="1283.0376" cx="100.5" stroke-dasharray="2,2" stroke-width="0" fill="#FFB27C"/>
  <ellipse transform="translate(159 246)" opacity="0.34" stroke="#000" ry="50" rx="50.5" id="svg_55" cy="878" cx="399.5" stroke-dasharray="2,2" stroke-width="0" fill="#84D3DB"/>
  <ellipse stroke="#000" opacity="0.34" ry="48.20548" rx="46" id="svg_56" cy="1293.79452" cx="650" stroke-dasharray="2,2" stroke-width="0" fill="#FFFF91"/>
  <ellipse stroke="#000" opacity="0.34" ry="31.18812" rx="31.5" id="svg_57" cy="1325.81188" cx="196.5" stroke-dasharray="2,2" stroke-width="0" fill="#A8FFE9"/>
  <ellipse stroke="#000" opacity="0.34" ry="24.25743" rx="24.5" id="svg_58" cy="1362.25743" cx="109.5" stroke-dasharray="2,2" stroke-width="0" fill="#B9FFCE"/>
  <ellipse stroke="#000" opacity="0.34" ry="41.91781" rx="40" id="svg_59" cy="1357.63023" cx="502" stroke-dasharray="2,2" stroke-width="0" fill="#8CD79F"/>
  <ellipse stroke="#000" opacity="0.34" ry="73.35617" rx="70.00001" id="svg_60" cy="1331.64383" cx="282" stroke-dasharray="2,2" stroke-width="0" fill="#FFAFCC"/>
  <ellipse stroke="#000" opacity="0.34" ry="89.60396" rx="90.5" id="svg_61" cy="766.39615" cx="607.5" stroke-dasharray="2,2" stroke-width="0" fill="#A8FFE9"/>
  <ellipse stroke="#000" opacity="0.34" ry="17.2911" rx="16.5" id="svg_62" cy="612.7089" cx="379.5" stroke-dasharray="2,2" stroke-width="0" fill="#FFAFCC"/>
  <ellipse stroke="#000" opacity="0.34" ry="50" rx="50.5" id="svg_63" cy="1007.00004" cx="66.5" stroke-dasharray="2,2" stroke-width="0" fill="#A8FFE9"/>
  <ellipse stroke="#000" opacity="0.34" ry="18.86301" rx="18" id="svg_64" cy="1079.13699" cx="374" stroke-dasharray="2,2" stroke-width="0" fill="#FFB27C"/>
  <ellipse stroke="#000" opacity="0.34" ry="17.32673" rx="17.5" id="svg_65" cy="1131.67327" cx="306.5" stroke-dasharray="2,2" stroke-width="0" fill="#A8FFE9"/>
  <ellipse stroke="#000" opacity="0.34" ry="129.9452" rx="124.00001" id="svg_66" cy="1236.59592" cx="430.00001" stroke-dasharray="2,2" stroke-width="0" fill="#FFB27C"/>
  <ellipse stroke="#000" opacity="0.34" ry="72.27723" rx="73" id="svg_67" cy="1208.23754" cx="151" stroke-dasharray="2,2" stroke-width="0" fill="#B9FFCE"/>
 </g>
</svg>